<svg id="Camada_1" data-name="Camada 1" xmlns="http://www.w3.org/2000/svg" viewBox="0 0 681.87 687.58"><defs><style>.cls-1{fill:#f4b9a3;}.cls-2{fill:#dc4450;}.cls-3{fill:#e45562;}.cls-4{fill:#fff;}.cls-5{fill:#3e1e07;}.cls-6{fill:#42302f;}.cls-7{fill:#f2a991;}.cls-8{fill:#ef957c;}</style></defs><path class="cls-1" d="M466.67,739.07C261.74,773.72,255.79,609.82,231.45,506.23c-14.48-61.63-40.27-149-31.78-219.4,0-.05,0-.09,0-.14s0-.11,0-.16C203.5,255.58,214,228,235,207.3c22.1-26.13,56.47-48,111.64-66.6,115.91-39,203.87-13.89,274.56,50.23,52.69,47.81,55.16,127.18,54.14,156.3,22.35-3.49,56.07,2.1,64.09,63.72,12.26,94.17-53.54,112.55-72.09,121.39,0,0,4.26,172.08-200.66,206.73" transform="translate(-59.07 -56.21)"/><path class="cls-2" d="M486.28,555.82s-46.61,35.53-91.19,41.59c0,0,2.62,60.44,66.12,36S486.28,555.82,486.28,555.82Z" transform="translate(-59.07 -56.21)"/><path class="cls-3" d="M439.19,598.18a134.48,134.48,0,0,1,14.2-21.66,277.58,277.58,0,0,0,32.89-20.7s38.43,53.08-25.07,77.55c-14.38,5.55-25.51,6.59-34.32,5.11C429.17,624.53,432.73,610.89,439.19,598.18Z" transform="translate(-59.07 -56.21)"/><path class="cls-4" d="M416.89,592.31c36.76-11.68,69.39-36.49,69.39-36.49a71.22,71.22,0,0,1,8.88,18.35c-22.94,15-47.85,26.18-73.71,35.27Q419.32,600.83,416.89,592.31Z" transform="translate(-59.07 -56.21)"/><path class="cls-5" d="M412.81,360.27l.12-.42c15.36-13.28,71.76-20.44,113.69-9.74,3.15,9.89-4,20.81-13,25.9s-19.82,5.8-30.19,6.39c-18.53,1.06-36-.28-54-.35A17.14,17.14,0,0,1,412.81,360.27Z" transform="translate(-59.07 -56.21)"/><path class="cls-5" d="M347,375.89l-.15-.17c-32.78-4.08-68.15,9.82-97.67,35.66,1.91,10,12.74,16.94,22.47,17.93s18.89-2.57,27.66-6.09c14.71-5.9,27.69-13.29,41.41-20C351,398.1,354.61,384.49,347,375.89Z" transform="translate(-59.07 -56.21)"/><path class="cls-6" d="M502.15,432.76a27,27,0,1,1-33.65-18.17A27,27,0,0,1,502.15,432.76Z" transform="translate(-59.07 -56.21)"/><path class="cls-6" d="M362.62,467.64A27,27,0,1,1,329,449.48,27,27,0,0,1,362.62,467.64Z" transform="translate(-59.07 -56.21)"/><path class="cls-7" d="M705,384.3c13,22.47,9.5,50.48,5.55,76.16-1.17,7.64-2.56,15.73-7.68,21.5s-15.39,7.65-20.33,1.71c-4.77-5.74-2-14.25.09-21.43s1.75-17.11-5.31-19.51c-3.29-1.11-7,0-10.35-.86-7.34-1.8-9.61-11.07-9.73-18.64A114.66,114.66,0,0,1,661,392.17c2.64-9.92,8-20.74,18-23.06C689.49,366.68,699.56,375,705,384.3Z" transform="translate(-59.07 -56.21)"/><path class="cls-8" d="M387.42,542c-1.92,1.84-2.29,5.17-.14,8.86s6.83,7.3,12.92,8.54,11.88-.27,15.22-2.82,4.38-5.78,3.34-8.22c-2.55-4.88-8.81-6.82-14.65-8.22C398.18,539.13,391.67,538.48,387.42,542Z" transform="translate(-59.07 -56.21)"/><path class="cls-5" d="M96.34,70.54S478,57.7,569.62,97.22c27,11.66,43.93,24.68,55.17,40.43h0l38.15-81.44s53.18,73.34-3.66,117.51a.15.15,0,0,0,0,.28c16,6.11,32.71,18.5,45.67,42.54,35.14,65.17-2.63,134.27-2.63,134.27s-22.78-9.05-47,7c-19.35,12.79-34.12,53.75-27.88,91.77a11,11,0,0,1-9.64,12.59h0a11.1,11.1,0,0,1-12.11-8.68L588.94,376s-33.61-13.87-76.11-79.93h0c-33.54,28.65-77.27,49.12-114.69,52.57L448.8,267c-49.64,58.9-93.29,87.64-167,109.9s-161.12,9.76-215.2-45.08c32.6-6.25,72.69-18.66,105.29-24.9C106.5,274.16,58.47,217.54,59.07,138c0,0,0,0,0,0,32.46,5.88,62.73,9.73,95.19,15.61h0c-37.5-20-50.41-43.38-58-83" transform="translate(-59.07 -56.21)"/></svg>