<svg id="Camada_1" data-name="Camada 1" xmlns="http://www.w3.org/2000/svg" viewBox="0 0 473.39 787.18"><defs><style>.cls-1{fill:#f4b9a3;}.cls-2{fill:#fbe6d7;}.cls-3{fill:#fff;}.cls-4{fill:#674c2f;}.cls-5{fill:#f8c063;}.cls-6{fill:#fbd79b;}.cls-7{fill:#ef957c;}.cls-8{fill:#3e1e07;}.cls-9{fill:#42302f;}.cls-10{fill:#f2a991;}</style></defs><circle class="cls-1" cx="227.55" cy="256.71" r="26.99"/><circle class="cls-1" cx="261.93" cy="403.85" r="22.88" transform="translate(-105.52 5.34) rotate(-6.58)"/><path class="cls-1" d="M261.61,281.79c-5.57,44.53-18.59,105-21.27,114.48l43.18,15.16s30.07-86.32,31.92-125.77Z" transform="translate(-60.94 -27.35)"/><path class="cls-2" d="M259.6,375.9c-4.75-.85-9.53-1.56-14.28-2.45,0,0,12.61-62.25,16.29-91.66h0a27,27,0,0,1,53.8,3.87h0c-1.1,23.41-8.4,58.75-14.84,97.75C289.2,382.25,270.9,377.94,259.6,375.9Z" transform="translate(-60.94 -27.35)"/><circle class="cls-1" cx="261.93" cy="403.85" r="22.88" transform="translate(-264.13 500.46) rotate(-71.96)"/><path class="cls-1" d="M192.31,319.87a11.87,11.87,0,1,0-.11,16.78A11.87,11.87,0,0,0,192.31,319.87Z" transform="translate(-60.94 -27.35)"/><path class="cls-1" d="M192.31,319.87c9.75,11.79,30.29,23.73,52.93,40.59,21.81,16.24,33,27.32,33,27.32l-32.58,32.14s-63.73-73-71.9-85.54Z" transform="translate(-60.94 -27.35)"/><path class="cls-1" d="M188.46,317.28a11.87,11.87,0,1,0,6.33,15.54A11.88,11.88,0,0,0,188.46,317.28Z" transform="translate(-60.94 -27.35)"/><path class="cls-1" d="M130.51,310.59c1.05-1.17,2.84-1.49,3.84-2.71,1.21-1.5.78-3.77-.22-5.41s-2.47-3-3.41-4.65-1.19-4,.19-5.37,4.08-1.15,5.35-2.73c1.12-1.38.6-3.45-.24-5s-2-3.12-1.93-4.89c0-3.38,4.48-5.23,7.65-4.06,4,1.49,7.34,4.59,10.7,7.19,2,1.55,6.8,6.32,9.48,5a5,5,0,0,0,2.36-3.43,37.76,37.76,0,0,0,.48-4.26,16.39,16.39,0,0,1,5.84-10.65c1.15-.95,2.64-1.77,4.09-1.39a3.91,3.91,0,0,1,2.58,3.61,14.61,14.61,0,0,1-.76,4.65A41.58,41.58,0,0,0,178.65,303c2.87,6.35,9.34,11.56,13.66,16.89l-11.19,19.89c-13.49-6.73-26.12-11.11-37-16.1-4.13-1.89-9.77-3.68-13-7C129.62,315,129,312.25,130.51,310.59Z" transform="translate(-60.94 -27.35)"/><polygon class="cls-3" points="97.7 737.18 95.98 757.86 88.69 771.33 65.76 763.71 62.51 748.37 63.84 724.54 97.7 737.18"/><path class="cls-3" d="M65.08,799.66c7.9-3.7,32.39-10.82,50.56-23.88a8.7,8.7,0,0,1,6.65-1.56l1.24.23a17.91,17.91,0,0,0,12.39,15c7.86,2.64,21-4.24,21-4.24l-1.56,29.33H60.94" transform="translate(-60.94 -27.35)"/><path class="cls-4" d="M196.61,557.58l-21.86,218s-35.67,5.63-59.74-3.72l15.11-220.14Z" transform="translate(-60.94 -27.35)"/><circle class="cls-4" cx="163.37" cy="554.67" r="33.37" transform="translate(-472.82 585.9) rotate(-79.4)"/><rect class="cls-5" x="166.34" y="512.27" width="214.72" height="274.91"/><polyline class="cls-6" points="473.39 512.27 381.03 512.27 381.03 787.18 473.39 787.18"/><path class="cls-2" d="M265,270.09A27,27,0,1,0,302.09,261,27,27,0,0,0,265,270.09Z" transform="translate(-60.94 -27.35)"/><circle class="cls-2" cx="401.03" cy="263.34" r="26.99"/><path class="cls-2" d="M456.93,306.36c11.26,77.89,11.25,169.84,11.25,169.84S375.76,475,306.84,462.09L308.18,394,291.65,281.61l-22.12-17.09c19.41-18,87.62-41.87,106.73-38.85,30.08,4.75,104.77,40,107,48.47Z" transform="translate(-60.94 -27.35)"/><path class="cls-1" d="M394.92,233.31l6.79-65.84L351.52,193l.48,2.4,1.4,33.12c.4,9.47,0,19,10,20.63h0C375.28,251.09,393.8,244.22,394.92,233.31Z" transform="translate(-60.94 -27.35)"/><path class="cls-7" d="M352.87,216,352,195.43l-.48-2.4,50.19-25.56-3.2,31.07C389.54,212,371.83,216,352.87,216Z" transform="translate(-60.94 -27.35)"/><path class="cls-1" d="M318.08,140.23c.22-15.68-.73-38.24,5.54-54.66l0,0v0c2.77-7.21,7-13.21,13.25-16.93,6.88-4.95,16.46-8.16,30.84-9.3,30.22-2.41,49.86,8.91,63,28.58,9.79,14.66,5.62,33.9,3.62,40.83,5.58.51,13.36,3.88,11.58,19.18-2.71,23.38-19.64,23.84-24.63,24.85,0,0-9.32,41.63-60.67,37.64S317.7,166.6,318.08,140.23Z" transform="translate(-60.94 -27.35)"/><path class="cls-8" d="M316.38,88.72c-13.75-11.8-21.89-28.3-17-47.39h0c7.45,3.36,14.49,6.11,21.95,9.47h0c-7.82-7-9.52-13.46-8.95-23.45,0,0,92.54,19.86,112.19,34.87,5.79,4.43,9.08,8.57,10.84,13L449.52,58s8.38,20.83-7.94,28a0,0,0,0,0,0,.07c3.47,2.43,6.75,6.41,8.42,13,4.53,17.79-8.7,32.13-8.7,32.13A13.35,13.35,0,0,0,429.56,130c-5.42,1.91-11.43,10.87-12.22,20.39a2.72,2.72,0,0,1-3.07,2.45h0a2.75,2.75,0,0,1-2.39-2.82l.62-19.62s-7.24-5.36-13.49-23.8h0c-9.78,4.87-21.53,7.17-30.73,5.75l17.1-16.6c-15.48,11.18-27.7,15.46-46.77,16.38s-39.33-7.34-49-23.77C297.78,88.83,308.17,88.26,316.38,88.72Z" transform="translate(-60.94 -27.35)"/><path class="cls-7" d="M353.43,158.2c1.23-.58,2.76,0,4.12.56s2.71,1.53,3,2.86c.11.65-.32,1.36-1.29,1.77a5.15,5.15,0,0,1-6.43-3.06A1.77,1.77,0,0,1,353.43,158.2Z" transform="translate(-60.94 -27.35)"/><path class="cls-8" d="M367.86,116l.05-.09c4.49-2.27,18.48-.6,27.92,4.49.17,2.56-2.21,4.76-4.69,5.44s-5.11.21-7.64-.28c-4.45-.84-8.5-2.18-12.76-3.27A4.39,4.39,0,0,1,367.86,116Z" transform="translate(-60.94 -27.35)"/><path class="cls-8" d="M351.09,115.84l0,0c-7.63-3-17-1.74-25.62,2.7-.15,2.52,2,4.84,4.32,5.66s4.7.52,7,.2c3.89-.53,7.45-1.53,11.16-2.33A4.39,4.39,0,0,0,351.09,115.84Z" transform="translate(-60.94 -27.35)"/><path class="cls-9" d="M387.58,138.84a6.7,6.7,0,1,1-7-6.39A6.7,6.7,0,0,1,387.58,138.84Z" transform="translate(-60.94 -27.35)"/><path class="cls-9" d="M351.93,138.84a6.7,6.7,0,1,1-7-6.39A6.7,6.7,0,0,1,351.93,138.84Z" transform="translate(-60.94 -27.35)"/><path class="cls-10" d="M439.26,139.38c1.78,6.18-.75,12.71-3.25,18.64-.74,1.77-1.56,3.63-3.14,4.71s-4.16.92-5-.81.39-3.54,1.31-5.15,1.45-4-.1-5c-.73-.46-1.68-.42-2.44-.83-1.66-.87-1.64-3.24-1.22-5.06a28.06,28.06,0,0,1,2.79-7.24c1.23-2.23,3.17-4.51,5.71-4.46S438.52,136.82,439.26,139.38Z" transform="translate(-60.94 -27.35)"/><path class="cls-7" d="M352.68,173.09c.67-1.16,5.81.74,11.42-1.11s8.73-6.27,9.95-5.7c.59.25.62,1.92-.65,4.18a14.18,14.18,0,0,1-17.77,5.66C353.29,175,352.35,173.64,352.68,173.09Z" transform="translate(-60.94 -27.35)"/><path class="cls-3" d="M396,222.7s-25.55,28.36-32.65,26.48-10.24-27-10.24-27-15.53,3.35-17.28,6.4-2.69,32.86,2.5,38.31,22.23-9.86,22.23-9.86S375.2,276,383.36,274.2s26.82-37.94,28-42.23S396,222.7,396,222.7Z" transform="translate(-60.94 -27.35)"/><circle class="cls-4" cx="163.37" cy="554.44" r="33.37" transform="translate(-465.19 636.2) rotate(-84.46)"/><path class="cls-4" d="M311.33,463.3a39.38,39.38,0,1,0,47.89,28.44A39.38,39.38,0,0,0,311.33,463.3Z" transform="translate(-60.94 -27.35)"/><polygon class="cls-4" points="94.19 494.75 250.39 435.94 269.83 512.27 110.67 559.42 94.19 494.75"/><path class="cls-4" d="M306.84,462.09H468.18v39.64h0a39.38,39.38,0,0,1-39.37,39.12H346.36v0a40.69,40.69,0,0,1-4.53-.24A39.38,39.38,0,0,1,307,501.73h-.16Z" transform="translate(-60.94 -27.35)"/><path class="cls-4" d="M306.84,462.09H468.18v39.64h0a39.38,39.38,0,0,1-39.37,39.12H346.36v0a40.69,40.69,0,0,1-4.53-.24A39.38,39.38,0,0,1,307,501.73h-.16Z" transform="translate(-60.94 -27.35)"/><polygon class="cls-3" points="241.8 737.18 245.38 757.86 241.56 771.33 216.67 763.71 209.49 748.37 204.69 724.54 241.8 737.18"/><path class="cls-3" d="M214.76,799.66c7-3.7,33.05-10.82,47.87-23.88a7.36,7.36,0,0,1,6.24-1.56l1.31.23a25.24,25.24,0,0,0,16.24,15c8.53,2.64,19.91-4.24,19.91-4.24l6,29.33H214.45a6.52,6.52,0,0,1-2.91-3S205.9,804.38,214.76,799.66Z" transform="translate(-60.94 -27.35)"/><path class="cls-4" d="M286.94,549.75l21.24,218.93s-26.7,12.17-52.28,8.69l-35-217.79Z" transform="translate(-60.94 -27.35)"/><circle class="cls-4" cx="253.93" cy="554.67" r="33.37" transform="translate(-373.67 301.39) rotate(-43.66)"/><circle class="cls-4" cx="253.93" cy="554.44" r="33.37" transform="translate(-415.32 484.08) rotate(-61.35)"/><path class="cls-4" d="M419.08,463.3A39.38,39.38,0,1,0,467,491.74,39.4,39.4,0,0,0,419.08,463.3Z" transform="translate(-60.94 -27.35)"/><polygon class="cls-4" points="184.75 494.75 358.13 435.94 377.58 512.27 201.22 559.42 184.75 494.75"/><circle class="cls-1" cx="462.8" cy="290.7" r="26.99" transform="translate(-115.21 86.34) rotate(-13.24)"/><circle class="cls-1" cx="416.46" cy="392.04" r="22.88"/><path class="cls-1" d="M436.68,297.45c9.49,43.86,17.23,112.12,17.84,122h45.76s-.2-98.28-11.52-136.11Z" transform="translate(-60.94 -27.35)"/><path class="cls-2" d="M452,395.76c-3.19-22.38-9.09-69.34-15.36-98.31h0a27,27,0,0,1,52.05-14.15h0c6.71,22.44,11.52,57.09,17.36,97.74C491.71,389.64,456.82,395,452,395.76Z" transform="translate(-60.94 -27.35)"/><path class="cls-1" d="M471.88,398.3A22.88,22.88,0,1,0,499.58,415,22.88,22.88,0,0,0,471.88,398.3Z" transform="translate(-60.94 -27.35)"/><path class="cls-1" d="M362.92,439.06a11.87,11.87,0,1,0,14.37,8.68A11.87,11.87,0,0,0,362.92,439.06Z" transform="translate(-60.94 -27.35)"/><path class="cls-1" d="M362.92,439.06c15.12-2.35,42.55-15.55,68.62-26.39,25.11-10.44,40.34-14.37,40.34-14.37l11,44.43s-102,19.09-117,19.71Z" transform="translate(-60.94 -27.35)"/><path class="cls-1" d="M365.56,438.73a11.87,11.87,0,1,0,11.74,12A11.86,11.86,0,0,0,365.56,438.73Z" transform="translate(-60.94 -27.35)"/><path class="cls-1" d="M365.56,438.73c-10.58-1.65-31.24-21.31-36.47-20.42s-32.6,20-31.24,24.16,6.88,3.9,6.23,6.49-.57,5.4,5.29,7.16,21.92,9.09,31.5,6.79,21.73-.8,21.73-.8Z" transform="translate(-60.94 -27.35)"/><path class="cls-3" d="M315.15,458.68h91.27a0,0,0,0,1,0,0v10.78a0,0,0,0,1,0,0h-92.7a0,0,0,0,1,0,0v-9.36A1.43,1.43,0,0,1,315.15,458.68Z" transform="translate(659.2 900.8) rotate(180)"/><path class="cls-3" d="M157.82,469.47H321.08a4.27,4.27,0,0,0,4.32-4.91L311.62,348.39a11.36,11.36,0,0,0-11-9.81H147.2a8.54,8.54,0,0,0-8.65,9.81l13.78,116.17A5.68,5.68,0,0,0,157.82,469.47Z" transform="translate(-60.94 -27.35)"/><circle class="cls-2" cx="166.79" cy="373.58" r="9.8"/></svg>